<?xml version="1.0" encoding="UTF-8"?>
<!DOCTYPE svg PUBLIC "-//W3C//DTD SVG 1.1//EN" "http://www.w3.org/Graphics/SVG/1.1/DTD/svg11.dtd">
<!-- Creator: CorelDRAW X7 -->
<svg xmlns="http://www.w3.org/2000/svg" xml:space="preserve" width="200px" height="200px" version="1.1" style="shape-rendering:geometricPrecision; text-rendering:geometricPrecision; image-rendering:optimizeQuality; fill-rule:evenodd; clip-rule:evenodd"
viewBox="0 0 200 200"
 xmlns:xlink="http://www.w3.org/1999/xlink">
 <defs>
  <style type="text/css">
   <![CDATA[
    .str1 {stroke:#2379BD;stroke-width:0.900007}
    .str0 {stroke:#2379BD;stroke-width:0.900007}
    .fil1 {fill:#FEFEFE}
    .fil0 {fill:#488EDE}
    .fil2 {fill:#488EDE;fill-rule:nonzero}
   ]]>
  </style>
 </defs>
 <g id="Layer_x0020_1">
  <metadata id="CorelCorpID_0Corel-Layer"/>
  <path class="fil0 str0" d="M52 21c4,15 17,9 22,24l0 0c0,-11 -16,-16 -7,-31 1,15 15,12 17,27l0 0c2,-10 -13,-18 -1,-31 -2,15 12,14 12,29l0 0c3,-10 -10,-20 4,-31 -4,15 10,16 7,31l0 0c5,-9 -6,-21 9,-30 -6,14 7,18 2,32l0 0c6,-8 -2,-22 14,-28 -9,13 4,19 -4,32l0 0c8,-7 2,-22 19,-25 -11,11 0,19 -10,30l0 1c9,-6 6,-22 23,-22 -12,9 -3,19 -14,29l0 0c9,-4 9,-20 26,-17 -14,6 -6,18 -20,25l1 0c10,-2 12,-18 28,-12 -15,4 -9,17 -23,22l0 0c10,-1 15,-16 30,-7 -15,1 -11,15 -27,17l1 0c10,1 18,-13 31,-1 -16,-2 -15,12 -30,12l0 0c10,3 20,-10 31,4 -15,-5 -16,10 -31,6l0 1c9,5 22,-6 30,9 -14,-7 -18,7 -32,1l0 0c8,7 22,-2 28,15 -13,-9 -19,4 -32,-5l0 0c7,8 22,2 25,20 -11,-12 -19,0 -30,-10l0 0c5,9 21,5 21,23 -9,-13 -19,-3 -28,-15 3,10 20,9 17,27 -7,-15 -19,-6 -26,-20 2,10 19,13 12,29 -3,-15 -16,-9 -21,-24 0,11 16,16 7,31 -1,-15 -15,-12 -17,-27 -2,10 12,18 1,31 2,-15 -13,-14 -12,-29 -4,10 9,20 -4,31 4,-15 -10,-16 -7,-31 -5,9 6,21 -10,30 7,-14 -7,-18 -1,-32 -7,8 2,22 -14,28 9,-13 -4,-19 4,-32 -8,7 -2,22 -19,25 11,-11 -1,-19 10,-31 -10,6 -6,22 -24,22 13,-9 3,-19 16,-29 -11,4 -10,21 -27,17 14,-6 6,-18 20,-25 -11,2 -13,18 -30,12 15,-4 9,-17 24,-22 -11,0 -16,16 -31,7 16,-1 12,-15 28,-17 -11,-2 -19,13 -32,2 15,1 14,-13 30,-12 -10,-4 -20,9 -32,-5 15,5 17,-10 32,-6 -9,-6 -22,6 -30,-10 14,7 17,-7 32,-1 -8,-7 -22,2 -28,-15 12,9 18,-4 32,5 -7,-8 -23,-2 -25,-20 10,12 19,0 30,10 -5,-9 -22,-5 -21,-23 8,13 19,3 28,15 -3,-10 -20,-9 -17,-27 6,15 18,6 26,20l0 0c-2,-10 -19,-13 -13,-29z"/>
  <circle class="fil1 str0" cx="100" cy="101" r="59"/>
  <circle class="fil0 str1" cx="100" cy="101" r="47"/>
  <path class="fil2" d="M51 97l-7 -1 1 -5 1 0 -1 4 2 1 1 -4 1 0 -1 4 2 0 1 -4 1 0 -1 5zm1 -6l-6 -3 0 -2c1,-1 1,-1 1,-1 0,-1 1,-1 1,-1 0,0 1,0 1,0 0,0 0,0 1,1 0,0 0,0 0,1 0,-1 0,-1 1,-1 0,0 1,0 1,0 0,0 0,0 1,0 0,1 0,1 0,1 0,0 0,1 0,1 0,0 0,1 0,1l-1 3zm-3 -3l0 -1c0,0 0,-1 0,-1 0,0 0,0 0,0 0,-1 0,-1 0,-1 -1,0 -1,0 -1,0 0,0 0,0 0,0 -1,1 -1,1 -1,1l0 2 2 0zm3 2l0 -2c0,0 0,-1 0,-1 0,0 0,0 0,0 0,-1 0,-1 0,-1 0,0 0,0 0,0 -1,0 -1,0 -1,0 0,0 -1,0 -1,0 0,0 0,1 0,1l-1 2 3 1zm2 -6l-6 -3 1 -2c0,-1 0,-1 0,-1 1,0 1,-1 1,-1 0,0 1,0 1,0 0,0 1,0 1,0 0,0 1,1 1,1 0,1 0,2 0,3l-1 1 3 1 -1 1zm-3 -2l1 -2c0,0 0,-1 0,-1 0,0 0,-1 0,-1 -1,0 -1,0 -1,0 0,0 -1,0 -1,0 0,1 0,1 0,1l-1 2 2 1zm5 -2l-4 -7 0 -1 8 2 -1 1 -2 -1 -2 3 2 2 -1 1zm-1 -4l1 -2 -2 0c0,0 -1,-1 -1,-1 0,1 0,1 1,1l1 2zm3 -4l1 0c0,0 0,0 1,0 0,0 1,0 1,-1 0,0 0,-1 0,-1 0,0 0,-1 0,-1 0,0 -1,0 -1,0 -1,0 -1,0 -1,1l0 0 -1 -1c0,0 0,0 0,0 1,-1 1,-1 1,-1 0,0 -1,-1 -1,-1 0,0 0,0 -1,0 0,0 0,0 0,1 -1,0 -1,0 -1,0 0,1 0,1 0,1 1,1 1,1 1,1l-1 0c-1,-1 -1,-2 0,-3 0,-1 1,-1 1,-1 1,0 1,0 2,0 0,1 0,1 0,2 1,0 1,0 1,0 1,0 1,0 1,0 1,1 1,1 1,2 0,0 0,1 -1,2 0,1 -1,1 -3,0zm1 -9l1 0 3 4 -1 -7 1 -1 5 6 -1 0 -4 -4 1 7 0 1 -5 -6zm14 -3l-4 -6 -2 2c-1,1 -1,1 -1,1 -1,1 -1,1 -1,1 0,1 1,1 1,1 0,1 0,1 1,1 0,0 1,0 1,0 0,0 0,0 0,0 0,1 0,1 0,2l0 2 1 -1 0 -2c0,0 0,0 0,-1 0,0 0,0 0,0 0,-1 0,-1 0,-1 0,0 1,0 1,0l1 -1 1 3 1 -1zm-3 -2l-1 1c-1,0 -1,0 -1,0 -1,0 -1,0 -1,0 0,0 0,0 0,0 -1,-1 -1,-1 -1,-1 0,0 1,-1 1,-1l2 -1 1 2zm1 -5l4 -2 4 6 -1 0 -3 -5 -2 1 1 3c1,1 1,2 1,2 0,0 0,1 0,1 0,0 0,0 0,1 -1,0 -1,0 -1,0l0 -1c0,0 0,0 0,0 0,0 0,0 0,-1 0,0 0,0 0,-1l-3 -4zm6 -3l1 -1 1 3 2 0c1,-1 2,-1 2,-1 0,1 1,1 1,1 0,1 0,2 0,2 0,1 -1,1 -2,1l-2 1 -3 -6zm3 5l2 0c1,-1 1,-1 1,-1 0,0 0,-1 0,-1 0,0 0,-1 0,-1 -1,0 -1,0 -1,0 0,0 -1,0 -1,1l-1 0 0 2zm3 -8l1 0 2 7 -1 0 -2 -7zm3 0l1 -1 1 3c0,0 1,0 1,0 0,0 0,-1 0,-1 0,-1 0,-1 0,-2 0,0 1,0 1,0 0,0 0,0 0,0 1,-1 1,-1 1,-1l0 1c0,0 0,0 0,0 0,0 0,0 0,0 0,0 -1,0 -1,1 0,0 0,0 0,1 0,0 0,1 0,1 0,0 -1,0 -1,0 1,0 1,1 2,1l2 2 -1 1 -2 -2c0,0 -1,-1 -1,-1 0,0 -1,0 -1,0l1 3 -1 0 -2 -6zm9 -2l1 0 2 4 2 -4 1 0 -2 5c-1,1 -1,1 -1,2 0,0 -1,0 -1,0 0,0 0,0 -1,0l0 -1c0,0 1,0 1,0 0,0 0,0 1,0 0,0 0,0 0,-1l-3 -5zm7 7l1 -7 1 0 -1 3 4 0 0 -3 1 0 -1 7 0 0 0 -3 -4 0 0 3 -1 0zm9 -6l0 0 -1 5 5 -4 1 0 -2 7 -1 0 2 -6 -5 5 -1 0 2 -7zm5 8l2 -6 3 1c0,0 1,0 1,0 0,0 0,1 0,1 0,0 0,1 0,1 0,0 0,1 0,1 -1,0 -1,0 -1,0 0,0 0,1 0,1 0,0 0,1 0,1 0,1 0,1 0,1 0,0 -1,0 -1,0 0,1 0,1 -1,1 0,-1 0,-1 -1,-1l-2 -1zm2 -3l1 0c1,0 1,0 1,1 1,0 1,-1 1,-1 0,0 0,0 0,0 0,0 0,-1 0,-1 0,0 0,0 0,0 0,0 0,-1 -1,-1l-1 0 -1 2zm-1 3l1 0c1,1 1,1 1,1 0,0 0,0 1,0 0,0 0,0 0,-1 0,0 0,0 0,0 1,0 1,-1 0,-1 0,0 0,0 0,0 0,-1 0,-1 -1,-1l-1 -1 -1 3zm5 3l3 -7 4 3 0 0 -4 -2 -1 2 4 2 -1 1 -3 -2 -1 2 4 2 -1 1 -4 -2zm5 3l4 -6 2 2c1,0 1,0 1,0 0,1 1,1 1,1 0,0 0,1 0,1 0,0 0,1 -1,1 0,0 0,1 -1,1 0,0 -1,0 -2,-1l-1 -1 -2 3 -1 -1zm3 -3l2 2c0,0 0,0 1,0 0,0 0,0 1,-1 0,0 0,0 0,0 0,-1 0,-1 0,-1 -1,0 -1,0 -1,-1l-2 -1 -1 2zm8 8l0 1c-1,1 -1,1 -2,1 0,0 -1,-1 -2,-1 0,-1 0,-1 -1,-2 0,0 0,-1 1,-1 0,-1 0,-2 1,-2 0,-1 1,-1 1,-1 1,0 1,0 2,0 0,0 1,0 1,1 1,0 1,1 1,1 0,1 0,1 0,2l-1 0c0,-1 0,-1 0,-2 0,0 0,0 0,-1 -1,0 -1,0 -1,0 -1,-1 -1,0 -2,0 0,0 0,0 -1,1 0,0 0,0 -1,1 0,0 0,1 0,1 0,1 1,1 1,1 0,1 1,1 1,1 1,0 1,0 2,-1zm5 -1l0 1 -4 4 7 -1 0 1 -5 4 -1 0 5 -4 -7 1 -1 -1 6 -5zm0 12l5 -3 -2 -2 1 -1 3 5 -1 0 -1 -2 -5 4 0 -1zm2 4l6 -3 2 4 -1 1 -1 -4 -2 1 1 3 -1 1 -1 -4 -2 1 2 4 -1 1 -2 -5zm3 8l6 -2 -1 -3 1 0 1 5 0 1 -1 -3 -6 2 0 0zm8 2l0 1 -5 1 6 3 0 1 -7 1 0 -1 5 -1 -6 -2 0 -1 7 -2z"/>
  <path class="fil2" d="M45 116l7 -3 2 5 -1 0 -2 -4 -2 1 2 4 -1 0 -1 -4 -3 1 2 5 -1 0 -2 -5zm3 6l6 -4 1 3c0,0 0,1 0,1 0,1 0,1 0,1 0,1 0,1 0,1 -1,0 -1,0 -1,0 -1,0 -1,0 -1,0 0,0 0,1 0,1 0,1 -1,1 -1,1 0,0 -1,0 -1,0 0,0 0,0 -1,0 0,0 0,0 0,0 -1,0 -1,-1 -1,-1l-1 -3zm4 -1l0 1c1,1 1,1 1,1 0,0 0,0 0,0 1,0 1,0 1,0 0,0 0,0 0,0 1,0 1,-1 1,-1 0,0 -1,0 -1,-1l-1 -1 -1 1zm-3 2l1 1c0,1 0,1 0,1 0,0 0,0 0,0 1,0 1,0 1,0 0,0 0,0 1,0 0,0 0,0 0,0 0,-1 0,-1 0,-1 0,0 0,-1 0,-1l-1 -2 -2 2zm2 5l6 -4 1 2c0,1 1,1 1,1 0,1 0,1 0,1 0,1 0,1 0,1 -1,1 -1,1 -1,1 0,0 -1,1 -2,1 0,-1 -1,-1 -1,-2l-1 -2 -3 2 0 -1zm3 -1l1 2c1,0 1,0 1,0 1,1 1,0 1,0 1,0 1,0 1,0 0,-1 0,-1 0,-1 0,0 0,-1 -1,-1l-1 -2 -2 2zm0 6l7 -3 0 1 -3 7 -1 0 1 -3 -2 -2 -2 1 0 -1zm3 0l2 2 1 -2c0,-1 0,-2 0,-2 0,0 0,1 -1,1l-2 1zm3 4l0 1c0,0 0,0 0,1 0,0 0,1 1,1 0,0 0,1 1,1 0,0 0,0 1,-1 0,0 0,0 0,-1 0,0 0,-1 -1,-1l0 0 0 -1c1,0 1,1 1,1 0,0 1,0 1,0 0,0 0,0 1,-1 0,0 0,0 0,0 0,-1 0,-1 -1,-1 0,-1 0,-1 0,-1 -1,0 -1,0 -1,0 -1,0 -1,1 -1,1l0 -1c1,-1 2,-1 3,0 0,0 1,1 1,2 0,0 0,1 -1,1 0,1 -1,1 -1,1 0,0 0,0 0,1 0,0 0,1 -1,1 0,0 -1,1 -1,1 -1,0 -1,-1 -2,-1 -1,-1 -1,-3 0,-4zm7 0l1 1 -4 5 7 -3 0 1 -4 6 0 -1 3 -4 -6 2 -1 -1 4 -6zm5 4l1 1 -3 5 6 -3 1 0 -4 7 -1 -1 3 -5 -6 3 -1 0 4 -7zm4 1l0 0c0,0 0,0 -1,1 0,0 0,0 -1,-1 0,0 0,0 0,0 0,-1 0,-1 0,-2l0 1c0,0 0,0 0,0 0,1 0,1 1,1 0,0 0,0 0,0 0,0 0,0 1,0zm4 9l1 1c-1,1 -1,1 -2,1 -1,1 -1,0 -2,0 -1,0 -1,-1 -1,-1 -1,-1 -1,-1 -1,-2 0,-1 0,-1 1,-2 0,-1 0,-1 1,-2 0,0 1,0 1,0 1,0 2,0 2,0 1,0 1,1 1,1 1,1 1,1 1,2l-1 0c0,-1 0,-1 0,-1 -1,-1 -1,-1 -1,-1 -1,-1 -1,-1 -2,-1 0,1 0,1 -1,1 0,1 0,1 0,1 -1,1 -1,2 -1,2 0,1 0,1 0,1 1,1 1,1 1,1 1,1 1,1 2,0 0,0 1,0 1,-1zm3 -4l1 1 -1 3c0,0 1,0 1,0 0,0 0,0 1,-1 0,0 1,-1 1,-1 0,0 0,0 0,0 1,0 1,0 1,0 0,0 1,0 1,0l-1 1c0,0 0,0 0,0 0,0 0,0 0,0 0,0 0,0 -1,0 0,0 0,0 0,1 -1,0 -1,0 -1,0 -1,1 -1,1 -1,1 0,0 1,1 1,1l1 3 -2 0 0 -2c0,-1 0,-2 0,-2 -1,0 -1,0 -1,0l-1 3 -1 0 2 -8zm5 2l0 0 -1 6 5 -5 1 0 -1 8 -1 -1 1 -6 -5 6 -1 -1 2 -7zm6 1l1 0 -1 6 4 -5 1 0 0 7 -1 0 0 -6 -4 6 -1 0 1 -8zm3 -1l1 0c0,0 0,1 -1,1 0,0 0,0 -1,0 0,0 0,0 -1,0 0,-1 0,-1 0,-1l1 0c0,0 0,0 0,0 0,0 0,0 0,0 1,0 1,0 1,0 0,0 0,0 0,0zm5 2l0 0 3 4 2 -5 1 0 -3 6c0,1 0,2 0,2 0,0 -1,0 -1,0 0,0 -1,0 -1,0l0 -1c0,0 0,1 1,1 0,-1 0,-1 0,-1 0,0 1,0 1,-1l-3 -5zm7 7l-1 -8 1 0 0 3 4 -1 -1 -3 1 0 1 8 -1 0 0 -4 -4 1 1 4 -1 0zm5 -9l0 0 2 6 2 -7 1 -1 2 7 -1 1 -2 -6 -1 7 -1 0 -2 -7zm8 5l-3 -7 3 -1c0,-1 1,-1 1,-1 0,0 1,0 1,1 0,0 1,0 1,0 0,1 0,1 0,1 0,1 0,1 -1,1 1,0 1,0 2,1 0,0 0,0 0,0 0,1 0,1 0,1 0,1 0,1 0,1 0,1 0,1 0,1 -1,0 -1,0 -1,1l-3 1zm0 -5l1 0c0,0 1,-1 1,-1 0,0 0,0 0,0 0,-1 0,-1 0,-1 0,0 0,0 -1,-1 0,0 0,0 0,0 0,0 -1,0 -1,1l-1 0 1 2zm1 4l1 -1c1,0 1,0 1,0 0,-1 0,-1 0,-1 0,0 1,0 1,0 0,-1 0,-1 -1,-1 0,0 0,-1 0,-1 0,0 0,0 -1,0 0,0 0,0 -1,0l-1 1 1 3zm5 -2l-3 -7 4 -3 0 1 -3 2 1 2 3 -2 1 1 -4 2 2 2 3 -2 1 1 -5 3zm6 -4l-4 -6 2 -2c0,0 1,0 1,0 0,-1 0,-1 1,-1 0,0 0,0 0,1 1,0 1,0 1,0 1,1 1,1 1,2 0,1 -1,1 -2,2l-1 1 2 3 -1 0zm-2 -4l2 -1c0,0 1,-1 1,-1 0,0 0,-1 -1,-1 0,0 0,0 0,-1 0,0 -1,0 -1,0 0,1 0,1 -1,1l-1 1 1 2zm9 -6l1 0c0,0 0,1 0,2 0,1 0,1 -1,2 0,0 -1,1 -2,1 0,0 -1,0 -1,0 -1,-1 -1,-1 -2,-2 0,0 -1,-1 -1,-2 0,0 0,-1 0,-1 0,-1 1,-2 1,-2 1,-1 1,-1 2,-1 0,0 1,0 2,1l-1 0c0,0 -1,0 -1,0 -1,0 -1,0 -1,1 -1,0 -1,0 -1,1 0,0 0,1 0,1 0,1 1,1 1,2 0,0 1,0 1,1 1,0 1,0 1,0 1,0 1,0 2,-1 0,0 0,-1 0,-1 0,-1 0,-1 0,-2zm-2 -5l0 0 4 4 -1 -7 0 -1 5 5 0 1 -4 -4 1 7 0 1 -5 -6zm11 -2l-6 -4 -1 2 0 0 2 -5 1 0 -1 2 5 4 0 1zm2 -4l-6 -4 2 -5 1 1 -2 4 2 1 1 -4 1 0 -2 4 3 1 1 -4 1 1 -2 5zm3 -8l-5 -3 -1 2 -1 0 2 -6 1 1 -1 2 6 3 -1 1z"/>
  <polygon class="fil1" points="100,56 101,58 104,58 102,60 102,63 100,61 98,63 99,60 96,58 99,58 "/>
  <polygon class="fil1" points="78,62 80,64 82,62 81,65 83,67 80,67 79,69 79,66 76,66 78,65 "/>
  <polygon class="fil1" points="61,79 64,79 66,77 66,80 69,80 66,81 66,84 64,82 62,83 63,81 "/>
  <polygon class="fil1" points="56,101 58,100 58,98 60,100 63,99 61,101 63,104 60,103 58,105 58,102 "/>
  <polygon class="fil1" points="62,124 64,122 62,119 65,120 67,118 66,121 69,122 66,123 66,126 65,123 "/>
  <polygon class="fil1" points="79,140 79,137 77,136 79,136 80,133 81,135 84,135 82,137 83,140 81,138 "/>
  <polygon class="fil1" points="101,146 100,143 97,143 100,142 99,139 101,140 103,139 103,141 105,143 102,143 "/>
  <polygon class="fil1" points="124,140 122,138 119,139 120,137 118,135 121,135 122,132 123,135 126,135 123,137 "/>
  <polygon class="fil1" points="140,123 137,122 136,125 136,122 133,121 135,120 135,117 137,119 139,118 138,121 "/>
  <polygon class="fil1" points="146,100 143,101 143,104 141,102 139,103 140,100 139,98 141,99 143,97 143,99 "/>
  <polygon class="fil1" points="139,78 138,80 139,82 136,81 135,83 135,80 132,79 135,79 135,76 137,78 "/>
  <polygon class="fil1" points="123,61 122,64 125,66 122,66 121,69 120,66 117,66 119,65 118,62 121,63 "/>
 </g>
</svg>
